<svg xmlns="http://www.w3.org/2000/svg" version="1.1" xmlns:xlink="http://www.w3.org/1999/xlink" xmlns:svgjs="http://svgjs.dev/svgjs" width="1500" height="1500" viewBox="0 0 1500 1500"><rect width="1500" height="1500" fill="#ffffff"></rect><g transform="matrix(0.6666666666666666,0,0,0.6666666666666666,249.39393939393938,582.7691119851361)"><svg viewBox="0 0 396 132" data-background-color="#eae5df" preserveAspectRatio="xMidYMid meet" height="500" width="1500" xmlns="http://www.w3.org/2000/svg" xmlns:xlink="http://www.w3.org/1999/xlink"><g id="tight-bounds" transform="matrix(1,0,0,1,0.2400000000000091,0.2235681530447664)"><svg viewBox="0 0 395.52 131.5530001930691" height="131.5530001930691" width="395.52"><g><svg viewBox="0 0 734.8938554446854 244.43135999999998" height="131.5530001930691" width="395.52"><g transform="matrix(1,0,0,1,0,41.78184052060739)"><svg viewBox="0 0 395.52 160.8676789587852" height="160.8676789587852" width="395.52"><g id="textblocktransform"><svg viewBox="0 0 395.52 160.8676789587852" height="160.8676789587852" width="395.52" id="textblock"><g><svg viewBox="0 0 395.52 160.8676789587852" height="160.8676789587852" width="395.52"><g transform="matrix(1,0,0,1,0,0)"><svg width="395.52" viewBox="2.5 -36.5 92.19 37.5" height="160.8676789587852" data-palette-color="#bea8ae"><path d="M10.5-18.7Q11.7-18.5 12.38-18.28 13.05-18.05 13.05-17.6L13.05-17.6 13.05-2.5Q13.05-1.6 11.78-1.3 10.5-1 9.3-1L9.3-1 2.5-1 2.5-35.5 8.15-35.5Q9.7-35.5 11.13-35 12.55-34.5 12.55-33.1L12.55-33.1 12.5-32.6 11.05-19.85Q11.05-19.3 10.95-19.1 10.85-18.9 10.5-18.7L10.5-18.7ZM5.35-20.75Q5.35-20.35 5.95-20.35L5.95-20.35 7.85-21.1Q8.3-21.2 8.3-21.55L8.3-21.55 8.8-32.35Q8.8-32.55 8.1-32.55L8.1-32.55 5.95-32.55Q5.35-32.55 5.35-32.35L5.35-32.35 5.35-20.75ZM7.75-3.8Q8.65-3.8 9.03-4.2 9.4-4.6 9.4-5L9.4-5Q9.4-5.3 9.3-5.3L9.3-5.3 9.3-16.55Q9.45-16.65 9.45-16.7L9.45-16.7Q9.45-16.85 9.1-16.85L9.1-16.85 7-16.85Q6.85-16.85 6.68-16.75 6.5-16.65 6.45-16.55L6.45-16.55 6.45-3.95Q6.5-3.9 6.65-3.85 6.8-3.8 7-3.8L7-3.8 7.75-3.8ZM27.9-3.45L27.9 0 17.8 0 17.8-35.5 21.5-35.5 21.5-5.25 22.25-4.1 27.9-3.45ZM42.39 0L35.74 0Q33.7 0 32.89-0.65 32.09-1.3 32.09-2.8L32.09-2.8 32.09-34.3Q33.2-34.9 34.97-35.2 36.74-35.5 39.7-35.5L39.7-35.5Q41.05-35.5 41.89-34.83 42.75-34.15 42.75-33.1L42.75-33.1 42.39 0ZM35.3-3.15L38.84-2.85 39.3-3.3 39.59-31.85Q39.59-32.1 39.14-32.15L39.14-32.15 36.05-32.3 35.59-32 35.3-3.15ZM61.29-14.7L59.34-13.85 59.34-2.9Q59.34-1.6 58.29-0.8 57.24 0 55.84 0L55.84 0 48.34 0 47.24-32.8Q47.29-34 47.97-34.75 48.64-35.5 49.69-35.5L49.69-35.5 59.69-35.5 59.69-33.4 58.79-27.95 56.59-27.95 56.59-32.75 50.99-31.5 51.84-5.6Q51.84-5.25 52.19-4.98 52.54-4.7 52.89-4.7L52.89-4.7 55.19-4.7Q55.54-4.7 55.87-4.88 56.19-5.05 56.19-5.3L56.19-5.3 56.19-17.15 61.29-16.65 61.29-14.7ZM67.14 1L64.54 1 64.54-35.5 69.04-35.5 71.64-16.6 71.94-16.6 74.29-36.5 79.14-36.5 79.14 0 75.84 0 76.94-33.05 76.74-33.05 72.39-9.05 70.89-9.05 67.34-30.5 67.14-30.5 67.14 1ZM94.09-6.05L94.69-1 82.94-1 84.09-35.5 94.24-35.5 94.24-31.6 87.09-31.6 87.09-21.3 92.54-21.3 92.54-18.8 87.34-17.9 87.34-5.15 94.09-6.05Z" opacity="1" transform="matrix(1,0,0,1,0,0)" fill="#000000" class="wordmark-text-0" data-fill-palette-color="primary" id="text-0"></path></svg></g></svg></g></svg></g></svg></g><g transform="matrix(1,0,0,1,490.46249544468543,0)"><svg viewBox="0 0 244.43135999999998 244.43135999999998" height="244.43135999999998" width="244.43135999999998"><g><svg viewBox="0 0 244.43135999999998 244.43135999999998" height="244.43135999999998" width="244.43135999999998"><g transform="matrix(1,0,0,1,72.23130729475648,64.60265593644993)"><svg viewBox="0 0 99.96874541048703 115.22604812710013" height="115.22604812710013" width="99.96874541048703"><g><svg xmlns="http://www.w3.org/2000/svg" xmlns:xlink="http://www.w3.org/1999/xlink" xml:space="preserve" version="1.1" style="shape-rendering:geometricPrecision;text-rendering:geometricPrecision;image-rendering:optimizeQuality;" viewBox="6948.995807065192 3430.5024364690235 46102.326867661046 53138.497563530975" x="0" y="0" fill-rule="evenodd" clip-rule="evenodd" height="115.22604812710013" width="99.96874541048703" class="icon-dxe-0" data-fill-palette-color="accent" id="dxe-0"><g fill="#13472e" data-fill-palette-color="accent"><path class="" d="M11662 10317C11590 10526 11363 10637 11154 10565S10834 10266 10906 10057C13635 2130 18869 3103 24081 4071 28065 4811 33244 4811 37228 4071 41527 3272 45840 2470 48751 6661 50010 8473 50455 9493 50359 11641L50009 19519C50178 19441 50364 19313 50553 19183 51246 18707 51972 18208 52898 18927 52985 19021 53030 19096 53051 19240 53067 21139 52486 24002 51748 26447 50960 29059 49938 31237 49188 31411L49171 31414C48935 31458 48729 31617 48564 31810 48310 32110 48167 32466 48151 32646 47506 39945 46285 41462 44642 43503 44166 44094 43654 44730 43111 45578L43101 45594 43086 45612C42754 46025 42371 46535 41947 47099 40399 49157 38331 51908 36768 52724 34962 53667 32806 54138 30654 54138S26346 53667 24540 52724C22977 51908 20909 49157 19361 47099 18937 46535 18554 46025 18222 45612 18084 45440 18111 45189 18283 45051S18706 44940 18844 45112C19162 45509 19560 46037 19999 46621 21500 48618 23506 51286 24909 52018 26595 52898 28622 53338 30654 53338S34713 52898 36399 52018C37802 51286 39808 48618 41309 46621 41741 46046 42133 45525 42449 45130 43009 44258 43533 43607 44020 43003 45575 41072 46730 39636 47354 32577 47380 32280 47589 31725 47954 31294 48220 30980 48573 30717 49009 30632 49461 30527 50268 28583 50982 26218 51674 23926 52225 21275 52253 19462 51837 19268 51412 19561 51003 19841 50533 20164 50078 20476 49519 20375 49325 20253 49224 20038 49195 19869L49568 11469C49648 9663 49072 8478 47990 7018 45296 3383 41327 4120 37371 4855 32798 5705 28510 5705 23937 4855 19062 3949 14167 3039 11662 10316zM9663 33622L12203 33634C12341 33635 12452 33746 12451 33884S12339 34133 12201 34132L9663 34120V35844L12230 35856C12368 35857 12479 35968 12478 36106S12366 36355 12228 36354L9663 36342V37855L12174 37867C12312 37868 12423 37979 12422 38117S12310 38366 12172 38365L9663 38353V40077L12200 40089C12338 40090 12449 40201 12448 40339S12336 40588 12198 40587L9663 40575V42200L12253 42212C12391 42213 12502 42324 12501 42462S12389 42711 12251 42710L9663 42698V44284L12134 44295C12272 44296 12383 44407 12382 44545S12270 44794 12132 44793L9663 44782V46506L12160 46518C12298 46519 12409 46630 12408 46768S12296 47017 12158 47016L9662 47004V48629L12212 48641C12350 48642 12461 48753 12460 48891S12348 49140 12210 49139L9662 49127V50436L14179 50410V32350C14179 31427 13964 30823 13581 30456 13201 30092 12629 29937 11920 29918 11211 29937 10640 30092 10259 30456 9876 30823 9661 31427 9661 32350V33621zM8760 54709H9947V51233L7349 51248C7129 51249 6950 51071 6949 50851S7126 50452 7346 50451L8863 50442V32351C8863 31191 9167 30400 9708 29882 9973 29628 10289 29446 10649 29324V27090C10649 26869 10828 26690 11049 26690H11466V18218C11466 18189 11472 18162 11483 18138L12122 16463C12161 16360 12277 16308 12380 16347 12460 16377 12509 16453 12509 16534V26691H12888C13109 26691 13288 26870 13288 27091V29359C13609 29480 13894 29652 14136 29884 14677 30402 14981 31193 14981 32353V50409L16501 50400C16721 50399 16900 50577 16901 50797S16724 51196 16504 51197L13869 51212V54711H14898C15119 54711 15298 54890 15298 55111V56169C15298 56390 15119 56569 14898 56569H8760C8539 56569 8360 56390 8360 56169V55111C8360 54890 8539 54711 8760 54711zM14498 55509H9160V55767H14498zM13069 51964H10747V54551H13069zM12108 26690V17619L11866 18254V26690zM12487 27490H11449V29018H12487zM27659 18699C27919 18902 27965 19278 27762 19538S27183 19844 26923 19641C25575 18590 24003 17565 22185 17105 20391 16651 18331 16745 15965 17907 15669 18052 15311 17929 15166 17633S15144 16979 15440 16834C18101 15527 20433 15426 22476 15943 24494 16453 26203 17563 27660 18699zM35729 19581C35469 19784 35093 19738 34890 19478S34733 18842 34993 18639C36450 17503 38159 16393 40177 15883 42219 15367 44552 15467 47213 16774 47509 16919 47632 17277 47487 17573S46984 17992 46688 17847C44322 16685 42262 16591 40468 17045 38649 17505 37078 18529 35730 19581zM26316 43248C26031 43081 25936 42715 26103 42430S26636 42050 26921 42217C28281 43018 29523 43717 30819 43864 32089 44008 33482 43629 35230 42297 35493 42096 35868 42147 36069 42410S36219 43048 35956 43249C33924 44797 32250 45233 30688 45055 29152 44880 27796 44119 26316 43249zM37196 40109C37482 40275 37580 40641 37414 40927S36882 41311 36596 41145C36435 41052 36264 40944 36087 40834 35003 40153 33693 39330 31348 40666 31157 40774 30932 40766 30754 40664 28521 39402 27150 40262 26048 40954 25867 41068 25692 41177 25529 41272 25243 41438 24877 41340 24711 41054S24643 40402 24929 40236C25090 40143 25248 40044 25410 39942 26734 39111 28370 38084 31050 39465 33832 38005 35410 38996 36724 39822 36882 39922 37036 40018 37195 40110zM29916 34384C30227 34497 30387 34840 30275 35150 30162 35461 29819 35621 29509 35509 29150 35378 28878 35196 28607 35014 28220 34754 27833 34495 27176 34587 26849 34632 26546 34404 26501 34076 26456 33749 26684 33446 27012 33401 28119 33246 28696 33633 29273 34020 29484 34161 29694 34302 29917 34384zM32099 35363C31788 35476 31445 35315 31333 35004 31220 34693 31381 34350 31692 34238 31915 34157 32126 34016 32336 33874 32913 33487 33490 33100 34597 33255 34924 33300 35153 33603 35108 33930S34760 34486 34433 34441C33776 34349 33389 34609 33002 34868 32730 35050 32459 35232 32100 35363zM16401 24553C16252 24470 16175 24345 16156 24190 16134 24017 16198 23817 16315 23612 16416 23433 16556 23245 16708 23068 17126 22579 17708 22151 17838 22168 18045 22195 18269 22309 18558 22457 19148 22758 20043 23215 21406 23215 22888 23215 24472 23014 25561 22876 26357 22775 26907 22705 27067 22790S27268 22996 27183 23158C27175 23173 27170 23182 27167 23187 26595 24207 24308 24774 21966 24970 19654 25164 17258 25006 16434 24571 16418 24562 16407 24557 16402 24554zM46445 24070C46425 24225 46349 24349 46200 24433 46195 24436 46184 24442 46168 24450 45344 24885 42948 25043 40636 24849 38294 24652 36007 24086 35435 23066 35432 23061 35427 23052 35419 23037 35333 22874 35375 22753 35535 22669 35696 22584 36245 22654 37041 22755 38130 22893 39714 23094 41196 23094 42559 23094 43454 22637 44044 22336 44333 22189 44557 22074 44764 22047 44894 22030 45475 22458 45894 22947 46046 23125 46186 23313 46287 23491 46403 23697 46468 23896 46446 24069z" fill="#000000" fill-rule="nonzero" data-fill-palette-color="accent"></path></g></svg></g></svg></g><g id="text-0"><path d="M28.621 83.019c0.46-0.902 0.864-1.594 1.212-2.075 0.346-0.474 0.698-0.655 1.056-0.542v0l17.981 5.661c0.71 0.223 1.027 0.878 0.952 1.965-0.082 1.085-0.272 2.103-0.572 3.056v0l-2.551 8.104-41.084-12.936 2.12-6.732c0.387-1.228 0.956-2.345 1.709-3.351 0.753-1.007 1.685-1.335 2.797-0.985v0l0.577 0.244 14.637 6.507c0.441 0.139 0.726 0.271 0.856 0.395 0.134 0.133 0.237 0.363 0.31 0.688zM24.253 88.389c0.313 0.099 0.545-0.092 0.696-0.571v0l-0.179-2.544c0.036-0.382-0.087-0.618-0.368-0.706v0l-12.673-4.644c-0.16-0.05-0.327 0.203-0.502 0.759v0l-0.807 2.56c-0.151 0.479-0.147 0.744 0.014 0.795v0zM45.33 91.884c0.225-0.716 0.229-1.274 0.01-1.672-0.227-0.395-0.5-0.642-0.82-0.743v0c-0.237-0.074-0.367-0.073-0.391 0.003v0l-13.397-4.218c-0.04-0.139-0.083-0.216-0.128-0.23v0c-0.115-0.036-0.216 0.083-0.303 0.358v0l-0.788 2.503c-0.036 0.115-0.038 0.255-0.005 0.419 0.039 0.167 0.091 0.281 0.155 0.344v0l15.008 4.726c0.05-0.026 0.114-0.094 0.191-0.203 0.075-0.103 0.137-0.234 0.187-0.395v0z" fill="#000000" data-fill-palette-color="accent"></path><path d="M71.452 55.316l3.045 3.041-8.91 8.92-31.357-31.319 3.269-3.273 26.718 26.687 1.678 0.355z" fill="#000000" data-fill-palette-color="accent"></path><path d="M107.459 43.378l-7.905 2.546c-1.621 0.522-2.83 0.626-3.627 0.313-0.802-0.305-1.396-1.054-1.78-2.247v0l-12.056-37.428c0.722-0.754 1.746-1.478 3.071-2.172 1.334-0.69 3.168-1.411 5.503-2.164v0c1.065-0.343 2.023-0.356 2.872-0.037 0.849 0.318 1.407 0.892 1.674 1.721v0zM97.823 42.352l4.325-1.003 0.363-0.708-10.574-34.04c-0.064-0.198-0.277-0.259-0.64-0.184v0l-3.743 1.005-0.419 0.536z" fill="#000000" data-fill-palette-color="accent"></path><path d="M151.757 28.359l-2.592 0.561-2.664 13.411c-0.21 1.058-0.811 1.831-1.804 2.317-0.984 0.481-2.048 0.608-3.191 0.381v0l-9.181-1.824 6.629-40.434c0.241-0.97 0.695-1.707 1.361-2.21 0.674-0.502 1.441-0.667 2.303-0.496v0l12.238 2.432-0.512 2.573-2.431 6.457-2.692-0.535 1.168-5.877-7.157 0.167-5.266 31.92c-0.056 0.283 0.038 0.565 0.283 0.845 0.238 0.28 0.502 0.448 0.792 0.506v0l2.81 0.558c0.289 0.057 0.579 0.043 0.87-0.042 0.298-0.091 0.468-0.239 0.508-0.442v0l2.882-14.507 6.12 1.852z" fill="#000000" data-fill-palette-color="accent"></path><path d="M168.497 59.751l-2.454-2.126 29.83-34.443 4.248 3.679-12.993 19.963 0.281 0.244 18.483-16.858 4.576 3.962-29.83 34.444-3.116-2.699 28.054-30.289-0.19-0.164-23.719 19.094-1.413-1.224 14.176-23.142-0.19-0.165z" fill="#000000" data-fill-palette-color="accent"></path><path d="M204.33 98.207l-5.624 2.946-5.214-13.711 40.767-13.975 4.506 11.851-4.548 1.729-3.174-8.345-12.019 4.571 2.419 6.362-2.923 1.111-3.351-5.674-14.886 5.66z" fill="#000000" data-fill-palette-color="accent"></path><path d="M30.082 160.28c0.137 0.976 0.201 1.753 0.192 2.331-0.017 0.574-0.198 0.915-0.543 1.023v0l-17.512 5.48c-0.697 0.218-1.315-0.129-1.853-1.042-0.539-0.913-0.953-1.833-1.244-2.761v0l-2.468-7.888 40.003-12.517 2.051 6.553c0.374 1.196 0.542 2.405 0.502 3.625-0.044 1.229-0.606 2.012-1.687 2.351v0l-0.594 0.122-15.315 2.939c-0.429 0.134-0.732 0.187-0.909 0.158-0.178-0.029-0.385-0.153-0.623-0.374zM30.594 153.567c-0.313 0.098-0.398 0.377-0.254 0.838v0l1.564 1.933c0.185 0.321 0.412 0.44 0.68 0.356v0l12.715-3.336c0.154-0.048 0.145-0.344-0.025-0.887v0l-0.781-2.495c-0.144-0.461-0.293-0.667-0.446-0.619v0zM11.804 162.502c0.216 0.691 0.527 1.134 0.933 1.33 0.397 0.192 0.749 0.24 1.056 0.144v0c0.237-0.074 0.343-0.149 0.319-0.227v0l13.04-4.08c0.113 0.091 0.188 0.131 0.227 0.119v0c0.115-0.036 0.131-0.188 0.046-0.457v0l-0.762-2.438c-0.036-0.115-0.113-0.228-0.233-0.338-0.119-0.11-0.223-0.173-0.311-0.187v0l-14.614 4.573c-0.026 0.05-0.041 0.139-0.043 0.266-0.002 0.127 0.02 0.267 0.069 0.421v0z" fill="#000000" data-fill-palette-color="accent"></path><path d="M45.835 213.993l-2.967 2.962-8.673-8.689 30.527-30.471 3.175 3.181-26.015 25.968-0.343 1.635z" fill="#000000" data-fill-palette-color="accent"></path><path d="M93.75 242.983l-7.697-2.469c-1.583-0.508-2.6-1.112-3.051-1.813-0.459-0.696-0.504-1.622-0.133-2.777v0l11.692-36.447c0.998-0.194 2.22-0.185 3.667 0.026 1.44 0.208 3.299 0.678 5.577 1.409v0c1.04 0.334 1.803 0.864 2.288 1.589 0.489 0.734 0.604 1.507 0.344 2.317v0zM86.706 236.701l3.993 1.672 0.686-0.361 10.941-32.918c0.061-0.191-0.074-0.362-0.407-0.511v0l-3.531-1.333-0.631 0.188z" fill="#000000" data-fill-palette-color="accent"></path><path d="M153.248 223.819l-2.123 1.482 2.619 13.052c0.207 1.032-0.044 1.947-0.752 2.745-0.707 0.805-1.615 1.319-2.726 1.542v0l-8.931 1.791-9.15-38.813c-0.152-0.961-0.021-1.794 0.391-2.498 0.42-0.7 1.048-1.133 1.882-1.301v0l11.908-2.388 0.501 2.494 0.238 6.709-2.622 0.526-1.147-5.717-6.375 2.827 7.205 30.651c0.057 0.283 0.245 0.505 0.564 0.666 0.32 0.162 0.621 0.214 0.903 0.158v0l2.731-0.548c0.283-0.057 0.538-0.18 0.767-0.369 0.229-0.189 0.323-0.386 0.281-0.59v0l-2.831-14.116 6.202-0.619z" fill="#000000" data-fill-palette-color="accent"></path><path d="M199.487 219.576l-2.382 2.072-29.11-33.457 4.126-3.59 17.455 15.252 0.28-0.245-13.717-20.116 4.444-3.867 29.111 33.457-3.027 2.633-25.349-31.172-0.182 0.159 15.149 25.467-1.373 1.195-20.36-16.829-0.19 0.165z" fill="#000000" data-fill-palette-color="accent"></path><path d="M231.934 156.286l5.998 1.474-5.03 13.361-38.735-16.076 4.346-11.545 4.432 1.668-3.061 8.13 11.715 4.41 2.331-6.191 2.842 1.07-1.199 6.295 14.499 5.459z" fill="#000000" data-fill-palette-color="accent"></path><path d="M5.301 122.063c0-9.613 7.793-17.406 17.406-17.406 9.613 0 17.406 7.793 17.406 17.406 0 9.613-7.793 17.406-17.406 17.406-9.613 0-17.406-7.793-17.406-17.406z" fill="#000000" data-fill-palette-color="accent"></path><path d="M204.318 122.063c0-9.613 7.793-17.406 17.406-17.406 9.613 0 17.406 7.793 17.406 17.406 0 9.613-7.793 17.406-17.406 17.406-9.613 0-17.406-7.793-17.406-17.406z" fill="#000000" data-fill-palette-color="accent"></path></g><g id="text-1"></g></svg></g></svg></g></svg></g><defs></defs></svg><rect width="395.52" height="131.5530001930691" fill="none" stroke="none" visibility="hidden"></rect></g></svg></g></svg>